<?xml version="1.0" encoding="utf-8"?>
<!-- Generator: Adobe Illustrator 24.1.1, SVG Export Plug-In . SVG Version: 6.00 Build 0)  -->
<svg version="1.1" id="Layer_1" xmlns="http://www.w3.org/2000/svg" xmlns:xlink="http://www.w3.org/1999/xlink" x="0px" y="0px"
	 viewBox="0 0 512 512" style="enable-background:new 0 0 512 512;" xml:space="preserve">
<g>
	<path d="M345.1,291.6c9.8,0,18,4.9,25.1,14.5c7,9.7,10.8,21.5,10.8,35.7c0,14.1-3.7,26-10.8,35.6c-7.1,9.7-15.3,14.5-25.1,14.5
		c-10.2,0-19.1-4.8-26.1-14.5c-7-9.6-10.8-21.5-10.8-35.6c0-14.2,3.7-26,10.8-35.7C325.9,296.4,334.8,291.6,345.1,291.6
		 M470.9,161.4c27.3,29.7,41.1,65.6,41.1,108c0,27.4-3.1,52-9.5,74c-6.4,21.8-14.4,39.6-23.9,53.4c-9.6,13.8-21.5,25.8-35.6,36.2
		c-14.1,10.5-27.1,18-38.9,22.8c-11.9,4.8-25.4,8.5-40.6,11.2c-15.3,2.6-26.6,4.1-34.5,4.5l-25.1,0.5l-20,0.6
		c-11,0.5-20.5,0.6-27.9,0.6s-16.9-0.1-27.9-0.6l-20-0.6l-25.1-0.5c-8-0.4-19.2-1.9-34.5-4.5c-15.5-2.6-28.7-6.4-40.6-11.2
		c-11.9-4.8-24.9-12.3-38.9-22.8c-14.2-10.4-26-22.4-35.7-36.2c-9.6-13.7-17.5-31.5-23.9-53.4c-6.3-21.9-9.5-46.6-9.5-74
		c0-42.4,13.9-78.4,41.1-108c-3-1.5-3.1-16.4-0.3-44.5c2.3-28.2,8.3-54.2,18.1-78c34.2,3.6,76.4,23,126.9,57.8
		c17-4.4,40.3-6.7,70.1-6.7c31.2,0,54.5,2.3,70.1,6.7c23-15.5,45-28.2,66-37.8c21.4-9.5,36.8-15.2,46.4-16.7l14.5-3.3
		c9.9,23.7,15.9,49.7,18.1,78C474,145.1,473.9,159.9,470.9,161.4 M257.1,447.4c61.7,0,108-7.4,139.8-22.2
		c31.3-14.8,47.3-45.3,47.3-91.3c0-26.7-10-49-30.1-66.8c-10.2-9.6-22.4-15.6-36.2-17.8c-13.7-2.2-34.7-2.2-62.9,0
		c-28.1,2.3-47.5,3.3-57.9,3.3c-14.1,0-29.3-0.7-48.2-2.2c-19-1.5-33.9-2.4-44.7-2.9c-10.8-0.3-22.3,1-35,3.9
		c-12.6,3-23,8.2-31.2,15.6C78.8,284.2,69,306.5,69,333.9c0,46,15.6,76.5,46.8,91.3c31.1,14.8,77.3,22.2,139.1,22.2H257.1
		 M168.1,291.6c9.8,0,18,4.9,25,14.5c7,9.7,10.8,21.5,10.8,35.7c0,14.1-3.7,26-10.8,35.6c-7,9.7-15.3,14.5-25,14.5
		c-10.2,0-19.1-4.8-26.2-14.5c-7-9.6-10.8-21.5-10.8-35.6c0-14.2,3.7-26,10.8-35.7C149,296.4,157.8,291.6,168.1,291.6"/>
</g>
</svg>
